<svg width="23" height="30" viewBox="0 0 23 30" fill="none" xmlns="http://www.w3.org/2000/svg">
<path d="M12.5125 0.516875C12.2775 0.1925 11.9006 0 11.5 0C11.0994 0 10.7225 0.1925 10.4875 0.516875C9.50375 1.87562 0.875 13.9487 0.875 19.375C0.875 25.2337 5.64125 30 11.5 30C17.3588 30 22.125 25.2337 22.125 19.375C22.125 13.9487 13.4963 1.87562 12.5125 0.516875ZM11.5 27.5C7.02 27.5 3.375 23.855 3.375 19.375C3.375 15.9087 8.55188 7.69 11.5 3.41875C14.4481 7.69 19.625 15.9087 19.625 19.375C19.625 23.855 15.98 27.5 11.5 27.5Z" fill="white"/>
</svg>
